<svg xmlns="http://www.w3.org/2000/svg" xmlns:xlink="http://www.w3.org/1999/xlink" viewBox="0 0 505.79 581.67"><defs><style>.cls-1{fill:url(#linear-gradient);}</style><linearGradient id="linear-gradient" x1="-1105.63" y1="-537.81" x2="-1105.63" y2="-693.6" gradientTransform="translate(4491.93 2653.97) scale(3.83)" gradientUnits="userSpaceOnUse"><stop offset="0" stop-color="#db202d"/><stop offset="1" stop-color="#980c14"/></linearGradient></defs><title>zynga</title><g id="Layer_2" data-name="Layer 2"><g id="Layer_1-2" data-name="Layer 1"><path class="cls-1" d="M396.12,2.27s40.19-3.8,71.68,16.84c11.4-.55,20.63,4.35,26.6,15.21S511.23,71.24,502.55,87c-2.71,3.26-8.69-9.77-8.69-9.77S489.52,93,481.37,98.93c1.09,32.58-11.94,55.39-15.74,63-1.63,4.35-.55,8.15,1.08,12.49S490.06,255.32,489,280.84s-14.12,55.94-24.44,66.24c2.17,21.18-7.6,39.1-12.5,47.8s-15.73,41.26-18.45,56.46-3.8,31.5-.55,36.39,17.93,20.09,16.84,27.69S433,531.71,425.44,531.71s-23.35-4.88-27.15-15.21-4.35-28.22-1.63-38.55S417.84,392.16,407,347.63C380.37,359.57,335.84,359,335.84,359s-7.6,39.63-16.83,62.44c-3.26,5.43-2.71,42.35-2.71,65.7s8.14,59.73,8.14,59.73,11.41,8.15,9.78,18.46-14.66,16.3-26.07,16.3-26.6-8.7-26.6-22.81,2.16-46.15,1.08-69.5-.53-38.56-4.34-53.22-14.66-53.22-15.75-83.08c-3.8,0-7.6-2.72-7.6-2.72S237,371,224.54,382.92c1.63,8.15,6,22.81,6,26.07s3.27,6,8.69,8.15,22.25,11.4,21.71,20.63-21.72,10.86-40.18,2.72c-4.34-2.17-20.08-54.84-22.26-61.91s-3.81-10.86-1.09-16.84,10.32-25.51,9.23-36.92-22.26-29.32-36.38-29.32c-10.86,0-27.46,16.59-39.64,26.06C115.93,333,99.1,350.34,94.75,353.06S56.2,417.68,49.68,435.59C47,442.65,41.54,478,12.76,476.86c-13-1.09-25-15.2,11.94-40.72,9.38-21.59,22.41-44,23.23-48.48s10.58-60.27,26.88-113.21,40.31-78.2,44.79-81.86c3.67-2.85,5.7-4.48,2-6.51s-42.36-35-35-105.08c1.23-8.14,4.89-6.1,7.34,12.63s17.5,62.71,50.9,76.57c3.26,1.22,27.28-17.11,149.87-26.07.81-21.58,4.07-44.39,4.07-44.39A29,29,0,0,1,289,80.19c-4.07,6.52-6.52,8.15-11.82,7.33s-4.88-26.06-3.66-44,22-25.65,29.73-26.46a44,44,0,0,1,21.17-4.48S343.18-6.41,396.12,2.27Z"/></g></g></svg>